<svg width="41" height="36" viewBox="0 0 41 36" fill="none" xmlns="http://www.w3.org/2000/svg">
<path d="M17.3917 18.8362C19.3878 19.9478 20.3859 20.5023 21.4825 20.5036C22.5791 20.5036 23.5772 19.9503 25.5746 18.8436L38.2834 11.7996C38.858 11.4817 39.2124 10.8914 39.2124 10.253C39.2124 9.61467 38.858 9.02438 38.2834 8.70644L25.5708 1.65872C23.5746 0.552085 22.5765 0 21.4825 0C20.3872 0 19.3891 0.55455 17.3955 1.66242L6.4704 7.72673C6.38211 7.77603 6.33732 7.80067 6.29637 7.82532C2.56894 9.93261 0.266971 13.7713 0.232422 17.9342V18.3211C0.265691 22.479 2.56383 26.314 6.28486 28.4238L6.46016 28.5224L13.2906 32.3253C17.288 34.5497 19.2867 35.6625 21.4825 35.6637C23.677 35.6637 25.677 34.5534 29.6757 32.3303L36.8951 28.3166C38.8938 27.2062 39.8931 26.6504 40.4421 25.7348C40.991 24.8204 40.991 23.7089 40.991 21.4857V17.18C40.9898 16.5737 40.6545 16.0129 40.1094 15.7098C39.5643 15.4066 38.8925 15.4054 38.3461 15.7073L23.5234 23.9233C22.5266 24.4754 22.0289 24.7514 21.4812 24.7514C20.9348 24.7514 20.4371 24.4766 19.4403 23.9245L9.41088 18.3729C8.90673 18.0944 8.65593 17.9539 8.45247 17.9292C7.99182 17.8725 7.54909 18.1202 7.37378 18.5343C7.29701 18.7167 7.29829 18.9964 7.30213 19.5571C7.30341 19.9675 7.30469 20.1733 7.34563 20.3631C7.4352 20.7858 7.66553 21.169 8.00206 21.4525C8.15305 21.5806 8.33859 21.6829 8.70839 21.8887L19.4339 27.8581C20.4332 28.4151 20.9335 28.6924 21.4812 28.6924C22.0314 28.6924 22.5305 28.4151 23.5298 27.8594L36.6763 20.5516C37.0179 20.3618 37.1881 20.2682 37.3161 20.3384C37.444 20.4099 37.444 20.5997 37.444 20.9792V22.93C37.444 23.4858 37.444 23.7631 37.3071 23.9923C37.1702 24.2215 36.9207 24.3595 36.4204 24.638L25.5797 30.6642C23.5797 31.7757 22.5804 32.3315 21.4825 32.3303C20.3846 32.3303 19.384 31.7733 17.3865 30.6605L7.2471 25.0127L7.17545 24.9732C5.05134 23.7742 3.74232 21.5868 3.72825 19.2158V17.3426C3.72825 16.0327 4.45121 14.8225 5.62715 14.1644C6.66873 13.5828 7.95344 13.5815 8.99502 14.162L17.3929 18.835L17.3917 18.8362Z" fill="#808080"/>
</svg>
